<svg width="35" height="35" viewBox="0 0 35 35" fill="none" xmlns="http://www.w3.org/2000/svg">
<path d="M17.5 8.75C15.7694 8.75 14.0777 9.26318 12.6388 10.2246C11.1998 11.1861 10.0783 12.5527 9.41605 14.1515C8.75379 15.7504 8.58051 17.5097 8.91813 19.207C9.25575 20.9044 10.0891 22.4635 11.3128 23.6872C12.5365 24.9109 14.0956 25.7443 15.793 26.0819C17.4903 26.4195 19.2496 26.2462 20.8485 25.5839C22.4473 24.9217 23.8139 23.8002 24.7754 22.3612C25.7368 20.9223 26.25 19.2306 26.25 17.5C26.25 15.1794 25.3281 12.9538 23.6872 11.3128C22.0462 9.67187 19.8206 8.75 17.5 8.75ZM17.5 22.75C16.4616 22.75 15.4466 22.4421 14.5833 21.8652C13.7199 21.2883 13.047 20.4684 12.6496 19.5091C12.2523 18.5498 12.1483 17.4942 12.3509 16.4758C12.5534 15.4574 13.0535 14.5219 13.7877 13.7877C14.5219 13.0535 15.4574 12.5534 16.4758 12.3509C17.4942 12.1483 18.5498 12.2523 19.5091 12.6496C20.4684 13.047 21.2883 13.7199 21.8652 14.5833C22.4421 15.4466 22.75 16.4616 22.75 17.5C22.75 18.8924 22.1969 20.2277 21.2123 21.2123C20.2277 22.1969 18.8924 22.75 17.5 22.75ZM26.25 7C25.9039 7 25.5655 7.10264 25.2778 7.29493C24.99 7.48722 24.7657 7.76053 24.6332 8.0803C24.5008 8.40007 24.4661 8.75194 24.5336 9.09141C24.6012 9.43087 24.7678 9.74269 25.0126 9.98744C25.2573 10.2322 25.5691 10.3989 25.9086 10.4664C26.2481 10.5339 26.5999 10.4992 26.9197 10.3668C27.2395 10.2343 27.5128 10.01 27.7051 9.72225C27.8974 9.43446 28 9.09612 28 8.75C28 8.28587 27.8156 7.84075 27.4874 7.51256C27.1593 7.18437 26.7141 7 26.25 7ZM34.895 10.92C34.866 9.42449 34.5819 7.94491 34.055 6.545C33.5664 5.27111 32.8153 4.11424 31.8505 3.14947C30.8858 2.18471 29.7289 1.43363 28.455 0.945C27.0551 0.418074 25.5755 0.133993 24.08 0.105C22.3825 -9.77889e-08 21.8225 0 17.5 0C13.1775 0 12.6175 -9.77889e-08 10.92 0.105C9.42449 0.133993 7.94491 0.418074 6.545 0.945C5.27111 1.43363 4.11424 2.18471 3.14947 3.14947C2.18471 4.11424 1.43363 5.27111 0.945 6.545C0.418074 7.94491 0.133993 9.42449 0.105 10.92C-9.77889e-08 12.635 0 13.195 0 17.5C0 21.805 -9.77889e-08 22.365 0.105 24.08C0.133993 25.5755 0.418074 27.0551 0.945 28.455C1.43363 29.7289 2.18471 30.8858 3.14947 31.8505C4.11424 32.8153 5.27111 33.5664 6.545 34.055C7.94491 34.5819 9.42449 34.866 10.92 34.895C12.67 34.895 13.1775 35 17.5 35C21.8225 35 22.3825 35 24.08 34.895C25.5755 34.866 27.0551 34.5819 28.455 34.055C29.7289 33.5664 30.8858 32.8153 31.8505 31.8505C32.8153 30.8858 33.5664 29.7289 34.055 28.455C34.5819 27.0551 34.866 25.5755 34.895 24.08C34.895 22.33 35 21.805 35 17.5C35 13.195 35 12.635 34.895 10.92ZM31.395 23.9225C31.3643 25.0331 31.1576 26.1317 30.7825 27.1775C30.4724 28.0041 29.9822 28.7513 29.3475 29.365C28.7375 30 27.9888 30.4851 27.16 30.7825C26.1118 31.1729 25.0058 31.3859 23.8875 31.4125C22.2425 31.4125 21.735 31.5 17.4825 31.5C13.23 31.5 12.74 31.5 11.095 31.5C9.97853 31.4712 8.87382 31.2644 7.8225 30.8875C6.9959 30.5774 6.24867 30.0872 5.635 29.4525C5.00002 28.8425 4.51486 28.0938 4.2175 27.265C3.82866 26.2224 3.61576 25.1224 3.5875 24.01C3.5875 22.26 3.5875 21.8225 3.5875 17.5875C3.5875 13.3525 3.5875 12.845 3.5875 11.165C3.61766 10.0471 3.83047 8.94169 4.2175 7.8925C4.51948 7.07111 5.00418 6.32909 5.635 5.7225C6.24501 5.08752 6.99371 4.60236 7.8225 4.305C8.87073 3.91457 9.97673 3.70165 11.095 3.675C12.74 3.5 13.2475 3.5 17.5 3.5C21.7525 3.5 22.26 3.5 23.905 3.5C25.0287 3.52857 26.1402 3.7414 27.195 4.13C28.0164 4.43198 28.7584 4.91668 29.365 5.5475C30 6.15751 30.4851 6.90621 30.7825 7.735C31.2109 8.79998 31.4536 9.93052 31.5 11.0775C31.5 12.8275 31.5875 13.265 31.5875 17.5C31.5875 21.735 31.5 22.2425 31.5 23.9225H31.395Z" fill="white"/>
</svg>
