<svg width="33" height="33" viewBox="0 0 33 33" fill="none" xmlns="http://www.w3.org/2000/svg">
<path d="M24.5232 11.4744C23.1434 11.4738 21.7849 11.8142 20.5692 12.4654C20.4583 12.1739 20.2611 11.923 20.0038 11.746C19.7466 11.5689 19.4414 11.4742 19.1288 11.4744H12.9639C12.7615 11.4742 12.561 11.5139 12.374 11.5912C12.1869 11.6684 12.017 11.7816 11.8738 11.9244C11.7307 12.0672 11.6172 12.2368 11.5397 12.4234C11.4623 12.61 11.4225 12.81 11.4227 13.0119V31.4625C11.4225 31.6644 11.4623 31.8644 11.5397 32.051C11.6171 32.2376 11.7307 32.4071 11.8738 32.5499C12.017 32.6927 12.1869 32.806 12.374 32.8832C12.561 32.9604 12.7615 33.0001 12.9639 33H19.1288C19.3313 33.0001 19.5317 32.9604 19.7188 32.8832C19.9058 32.806 20.0758 32.6927 20.2189 32.5499C20.3621 32.4071 20.4756 32.2376 20.553 32.051C20.6304 31.8644 20.6702 31.6644 20.6701 31.4625V23.006C20.6701 22.5982 20.8325 22.2071 21.1215 21.9187C21.4105 21.6304 21.8026 21.4684 22.2113 21.4684C22.6201 21.4684 23.0121 21.6304 23.3011 21.9187C23.5902 22.2071 23.7526 22.5982 23.7526 23.006V31.4625C23.7524 31.6644 23.7922 31.8644 23.8696 32.051C23.9471 32.2376 24.0606 32.4071 24.2037 32.5499C24.3469 32.6927 24.5168 32.806 24.7039 32.8832C24.8909 32.9604 25.0914 33.0001 25.2938 33H31.4588C31.6612 33.0001 31.8617 32.9604 32.0487 32.8832C32.2358 32.806 32.4057 32.6927 32.5488 32.5499C32.692 32.4071 32.8055 32.2376 32.8829 32.051C32.9603 31.8644 33.0001 31.6644 33 31.4625V19.9309C32.9972 17.6889 32.1032 15.5396 30.5141 13.9543C28.925 12.369 26.7705 11.4771 24.5232 11.4744ZM29.9175 29.9249H26.835V23.006C26.835 21.7826 26.3479 20.6094 25.4808 19.7443C24.6137 18.8793 23.4376 18.3933 22.2113 18.3933C20.985 18.3933 19.809 18.8793 18.9419 19.7443C18.0748 20.6094 17.5876 21.7826 17.5876 23.006V29.9249H14.5051V14.5495H17.5876V15.6305C17.5878 15.9491 17.6871 16.2598 17.8719 16.5196C18.0567 16.7795 18.3177 16.9757 18.6191 17.0812C18.9204 17.1866 19.2471 17.1962 19.5541 17.1085C19.8611 17.0208 20.1333 16.8401 20.3329 16.5915C21.0246 15.7152 21.9733 15.0762 23.0467 14.7637C24.12 14.4513 25.2643 14.4811 26.3198 14.8488C27.3754 15.2166 28.2895 15.904 28.9345 16.8151C29.5794 17.7262 29.9231 18.8155 29.9175 19.9309V29.9249ZM8.34018 11.4744H2.17522C1.97279 11.4742 1.77232 11.5139 1.58528 11.5912C1.39824 11.6684 1.22829 11.7816 1.08515 11.9244C0.942006 12.0672 0.828483 12.2368 0.75107 12.4234C0.673656 12.61 0.63387 12.81 0.633985 13.0119V31.4625C0.633868 31.6644 0.673653 31.8644 0.751066 32.051C0.828479 32.2376 0.942001 32.4071 1.08514 32.5499C1.22828 32.6927 1.39823 32.806 1.58528 32.8832C1.77232 32.9604 1.97279 33.0001 2.17522 33H8.34018C8.54261 33.0001 8.74308 32.9604 8.93012 32.8832C9.11717 32.806 9.28712 32.6927 9.43026 32.5499C9.5734 32.4071 9.68692 32.2376 9.76434 32.051C9.84175 31.8644 9.88154 31.6644 9.88142 31.4625V13.0119C9.88153 12.81 9.84175 12.61 9.76433 12.4234C9.68692 12.2368 9.5734 12.0672 9.43026 11.9244C9.28712 11.7816 9.11717 11.6684 8.93012 11.5912C8.74308 11.5139 8.54261 11.4742 8.34018 11.4744ZM6.79894 29.9249H3.71646V14.5495H6.79894V29.9249ZM5.28028 0.00888157C4.60577 -0.0313969 3.9301 0.0656127 3.29436 0.294011C2.65861 0.522409 2.07608 0.877423 1.58218 1.33746C1.08828 1.7975 0.693347 2.35296 0.421384 2.97004C0.149422 3.58713 0.00611986 4.25295 0.000191768 4.92702C-0.00573633 5.60108 0.125834 6.26931 0.386901 6.89106C0.647968 7.51281 1.03308 8.07509 1.51881 8.54371C2.00454 9.01232 2.58074 9.37748 3.21237 9.61697C3.844 9.85646 4.51786 9.96528 5.19297 9.93681H5.23662C5.91291 9.97689 6.59029 9.87898 7.22737 9.64906C7.86444 9.41915 8.44784 9.06206 8.94191 8.59962C9.43598 8.13718 9.83034 7.5791 10.1009 6.95948C10.3715 6.33985 10.5125 5.6717 10.5155 4.99585C10.5185 4.32 10.3833 3.65064 10.1182 3.02867C9.85308 2.4067 9.46364 1.84519 8.97366 1.37844C8.48367 0.911698 7.90344 0.54952 7.26841 0.314041C6.63338 0.0785622 5.95688 -0.0252725 5.28027 0.00888157H5.28028ZM5.23663 6.86172H5.19297C4.92644 6.89401 4.65607 6.86907 4.39999 6.78858C4.14391 6.70809 3.90804 6.5739 3.70821 6.39502C3.50837 6.21614 3.34918 5.9967 3.24132 5.75142C3.13346 5.50614 3.07941 5.24069 3.08281 4.97286C3.08281 3.8257 3.94524 3.08396 5.28028 3.08396C5.54953 3.04815 5.82335 3.07032 6.08329 3.14897C6.34323 3.22762 6.58326 3.36093 6.7872 3.53992C6.99115 3.71891 7.15428 3.93942 7.26561 4.1866C7.37694 4.43377 7.43388 4.70188 7.43259 4.97286C7.43259 6.12001 6.57016 6.86172 5.23663 6.86172Z" fill="white"/>
</svg>
