<svg width="38" height="31" viewBox="0 0 38 31" fill="none" xmlns="http://www.w3.org/2000/svg">
<path d="M32.3 0H5.7C4.18827 0 2.73845 0.612387 1.66949 1.70244C0.600534 2.7925 0 4.27093 0 5.8125V25.1875C0 26.7291 0.600534 28.2075 1.66949 29.2976C2.73845 30.3876 4.18827 31 5.7 31H32.3C33.8117 31 35.2616 30.3876 36.3305 29.2976C37.3995 28.2075 38 26.7291 38 25.1875V5.8125C38 4.27093 37.3995 2.7925 36.3305 1.70244C35.2616 0.612387 33.8117 0 32.3 0ZM31.521 3.875L20.349 15.2675C20.1724 15.4491 19.9622 15.5932 19.7307 15.6916C19.4992 15.79 19.2508 15.8406 19 15.8406C18.7492 15.8406 18.5008 15.79 18.2693 15.6916C18.0378 15.5932 17.8276 15.4491 17.651 15.2675L6.479 3.875H31.521ZM34.2 25.1875C34.2 25.7014 33.9998 26.1942 33.6435 26.5575C33.2872 26.9209 32.8039 27.125 32.3 27.125H5.7C5.19609 27.125 4.71282 26.9209 4.3565 26.5575C4.00018 26.1942 3.8 25.7014 3.8 25.1875V6.60687L14.972 17.9994C16.0408 19.0879 17.4895 19.6993 19 19.6993C20.5105 19.6993 21.9592 19.0879 23.028 17.9994L34.2 6.60687V25.1875Z" fill="white"/>
</svg>
