<svg width="13" height="12" viewBox="0 0 13 12" fill="none" xmlns="http://www.w3.org/2000/svg">
<path d="M5.36894 0.846975C5.6683 -0.0743361 6.97171 -0.0743382 7.27106 0.846972L8.02631 3.17139C8.16018 3.58342 8.54414 3.86238 8.97736 3.86238H11.4214C12.3901 3.86238 12.7929 5.10199 12.0092 5.67139L10.0319 7.10796C9.68143 7.36261 9.53477 7.81398 9.66865 8.226L10.4239 10.5504C10.7233 11.4717 9.66877 12.2379 8.88506 11.6685L6.90779 10.2319C6.5573 9.97724 6.0827 9.97724 5.73222 10.2319L3.75495 11.6685C2.97123 12.2379 1.91675 11.4717 2.2161 10.5504L2.97135 8.226C3.10523 7.81398 2.95857 7.36261 2.60808 7.10796L0.630815 5.67139C-0.152899 5.10199 0.249875 3.86238 1.2186 3.86238H3.66264C4.09586 3.86238 4.47982 3.58342 4.6137 3.17139L5.36894 0.846975Z" fill="#6921EF"/>
</svg>
