<svg width="137" height="136" viewBox="0 0 137 136" fill="none" xmlns="http://www.w3.org/2000/svg">
<path d="M5.73922 11.4783C8.90885 11.4783 11.4782 8.90877 11.4782 5.73913C11.4782 2.5695 8.90885 0 5.73922 0C2.56958 0 0 2.5695 0 5.73913C0 8.90877 2.56958 11.4783 5.73922 11.4783Z" fill="#6921EF"/>
<path d="M30.8265 11.4783C33.9961 11.4783 36.5657 8.90877 36.5657 5.73913C36.5657 2.5695 33.9961 0 30.8265 0C27.6569 0 25.0875 2.5695 25.0875 5.73913C25.0875 8.90877 27.6569 11.4783 30.8265 11.4783Z" fill="#6921EF"/>
<path d="M55.913 11.4783C59.0826 11.4783 61.652 8.90877 61.652 5.73913C61.652 2.5695 59.0826 0 55.913 0C52.7433 0 50.1737 2.5695 50.1737 5.73913C50.1737 8.90877 52.7433 11.4783 55.913 11.4783Z" fill="#6921EF"/>
<path d="M81.0433 11.4783C84.213 11.4783 86.7825 8.90877 86.7825 5.73913C86.7825 2.5695 84.213 0 81.0433 0C77.8737 0 75.3043 2.5695 75.3043 5.73913C75.3043 8.90877 77.8737 11.4783 81.0433 11.4783Z" fill="#6921EF"/>
<path d="M106.131 11.4783C109.301 11.4783 111.87 8.90877 111.87 5.73913C111.87 2.5695 109.301 0 106.131 0C102.961 0 100.392 2.5695 100.392 5.73913C100.392 8.90877 102.961 11.4783 106.131 11.4783Z" fill="#6921EF"/>
<path d="M131.261 11.4783C134.43 11.4783 137 8.90877 137 5.73913C137 2.5695 134.43 0 131.261 0C128.091 0 125.522 2.5695 125.522 5.73913C125.522 8.90877 128.091 11.4783 131.261 11.4783Z" fill="#6921EF"/>
<path d="M5.73922 32.1741C8.90885 32.1741 11.4782 29.6046 11.4782 26.4349C11.4782 23.2653 8.90885 20.6958 5.73922 20.6958C2.56958 20.6958 0 23.2653 0 26.4349C0 29.6046 2.56958 32.1741 5.73922 32.1741Z" fill="#6921EF"/>
<path d="M30.8265 32.1741C33.9961 32.1741 36.5657 29.6046 36.5657 26.4349C36.5657 23.2653 33.9961 20.6958 30.8265 20.6958C27.6569 20.6958 25.0875 23.2653 25.0875 26.4349C25.0875 29.6046 27.6569 32.1741 30.8265 32.1741Z" fill="#6921EF"/>
<path d="M55.913 32.1741C59.0826 32.1741 61.652 29.6046 61.652 26.4349C61.652 23.2653 59.0826 20.6958 55.913 20.6958C52.7433 20.6958 50.1737 23.2653 50.1737 26.4349C50.1737 29.6046 52.7433 32.1741 55.913 32.1741Z" fill="#6921EF"/>
<path d="M81.0433 32.1741C84.213 32.1741 86.7825 29.6046 86.7825 26.4349C86.7825 23.2653 84.213 20.6958 81.0433 20.6958C77.8737 20.6958 75.3043 23.2653 75.3043 26.4349C75.3043 29.6046 77.8737 32.1741 81.0433 32.1741Z" fill="#6921EF"/>
<path d="M106.131 32.1741C109.301 32.1741 111.87 29.6046 111.87 26.4349C111.87 23.2653 109.301 20.6958 106.131 20.6958C102.961 20.6958 100.392 23.2653 100.392 26.4349C100.392 29.6046 102.961 32.1741 106.131 32.1741Z" fill="#6921EF"/>
<path d="M131.261 32.1741C134.43 32.1741 137 29.6046 137 26.4349C137 23.2653 134.43 20.6958 131.261 20.6958C128.091 20.6958 125.522 23.2653 125.522 26.4349C125.522 29.6046 128.091 32.1741 131.261 32.1741Z" fill="#6921EF"/>
<path d="M5.73922 52.8694C8.90885 52.8694 11.4782 50.2999 11.4782 47.1302C11.4782 43.9606 8.90885 41.3911 5.73922 41.3911C2.56958 41.3911 0 43.9606 0 47.1302C0 50.2999 2.56958 52.8694 5.73922 52.8694Z" fill="#6921EF"/>
<path d="M30.8265 52.8694C33.9961 52.8694 36.5657 50.2999 36.5657 47.1302C36.5657 43.9606 33.9961 41.3911 30.8265 41.3911C27.6569 41.3911 25.0875 43.9606 25.0875 47.1302C25.0875 50.2999 27.6569 52.8694 30.8265 52.8694Z" fill="#6921EF"/>
<path d="M55.913 52.8694C59.0826 52.8694 61.652 50.2999 61.652 47.1302C61.652 43.9606 59.0826 41.3911 55.913 41.3911C52.7433 41.3911 50.1737 43.9606 50.1737 47.1302C50.1737 50.2999 52.7433 52.8694 55.913 52.8694Z" fill="#6921EF"/>
<path d="M81.0433 52.8694C84.213 52.8694 86.7825 50.2999 86.7825 47.1302C86.7825 43.9606 84.213 41.3911 81.0433 41.3911C77.8737 41.3911 75.3043 43.9606 75.3043 47.1302C75.3043 50.2999 77.8737 52.8694 81.0433 52.8694Z" fill="#6921EF"/>
<path d="M106.131 52.8694C109.301 52.8694 111.87 50.2999 111.87 47.1302C111.87 43.9606 109.301 41.3911 106.131 41.3911C102.961 41.3911 100.392 43.9606 100.392 47.1302C100.392 50.2999 102.961 52.8694 106.131 52.8694Z" fill="#6921EF"/>
<path d="M131.261 52.8694C134.43 52.8694 137 50.2999 137 47.1302C137 43.9606 134.43 41.3911 131.261 41.3911C128.091 41.3911 125.522 43.9606 125.522 47.1302C125.522 50.2999 128.091 52.8694 131.261 52.8694Z" fill="#6921EF"/>
<path d="M5.73922 73.5652C8.90885 73.5652 11.4782 70.9957 11.4782 67.826C11.4782 64.6564 8.90885 62.0869 5.73922 62.0869C2.56958 62.0869 0 64.6564 0 67.826C0 70.9957 2.56958 73.5652 5.73922 73.5652Z" fill="#6921EF"/>
<path d="M30.8265 73.5652C33.9961 73.5652 36.5657 70.9957 36.5657 67.826C36.5657 64.6564 33.9961 62.0869 30.8265 62.0869C27.6569 62.0869 25.0875 64.6564 25.0875 67.826C25.0875 70.9957 27.6569 73.5652 30.8265 73.5652Z" fill="#6921EF"/>
<path d="M55.913 73.5652C59.0826 73.5652 61.652 70.9957 61.652 67.826C61.652 64.6564 59.0826 62.0869 55.913 62.0869C52.7433 62.0869 50.1737 64.6564 50.1737 67.826C50.1737 70.9957 52.7433 73.5652 55.913 73.5652Z" fill="#6921EF"/>
<path d="M81.0433 73.5652C84.213 73.5652 86.7825 70.9957 86.7825 67.826C86.7825 64.6564 84.213 62.0869 81.0433 62.0869C77.8737 62.0869 75.3043 64.6564 75.3043 67.826C75.3043 70.9957 77.8737 73.5652 81.0433 73.5652Z" fill="#6921EF"/>
<path d="M106.131 73.5652C109.301 73.5652 111.87 70.9957 111.87 67.826C111.87 64.6564 109.301 62.0869 106.131 62.0869C102.961 62.0869 100.392 64.6564 100.392 67.826C100.392 70.9957 102.961 73.5652 106.131 73.5652Z" fill="#6921EF"/>
<path d="M131.261 73.5652C134.43 73.5652 137 70.9957 137 67.826C137 64.6564 134.43 62.0869 131.261 62.0869C128.091 62.0869 125.522 64.6564 125.522 67.826C125.522 70.9957 128.091 73.5652 131.261 73.5652Z" fill="#6921EF"/>
<path d="M5.73922 94.261C8.90885 94.261 11.4782 91.6915 11.4782 88.5219C11.4782 85.3522 8.90885 82.7827 5.73922 82.7827C2.56958 82.7827 0 85.3522 0 88.5219C0 91.6915 2.56958 94.261 5.73922 94.261Z" fill="#6921EF"/>
<path d="M30.8265 94.261C33.9961 94.261 36.5657 91.6915 36.5657 88.5219C36.5657 85.3522 33.9961 82.7827 30.8265 82.7827C27.6569 82.7827 25.0875 85.3522 25.0875 88.5219C25.0875 91.6915 27.6569 94.261 30.8265 94.261Z" fill="#6921EF"/>
<path d="M55.913 94.261C59.0826 94.261 61.652 91.6915 61.652 88.5219C61.652 85.3522 59.0826 82.7827 55.913 82.7827C52.7433 82.7827 50.1737 85.3522 50.1737 88.5219C50.1737 91.6915 52.7433 94.261 55.913 94.261Z" fill="#6921EF"/>
<path d="M81.0433 94.261C84.213 94.261 86.7825 91.6915 86.7825 88.5219C86.7825 85.3522 84.213 82.7827 81.0433 82.7827C77.8737 82.7827 75.3043 85.3522 75.3043 88.5219C75.3043 91.6915 77.8737 94.261 81.0433 94.261Z" fill="#6921EF"/>
<path d="M106.131 94.261C109.301 94.261 111.87 91.6915 111.87 88.5219C111.87 85.3522 109.301 82.7827 106.131 82.7827C102.961 82.7827 100.392 85.3522 100.392 88.5219C100.392 91.6915 102.961 94.261 106.131 94.261Z" fill="#6921EF"/>
<path d="M131.261 94.261C134.43 94.261 137 91.6915 137 88.5219C137 85.3522 134.43 82.7827 131.261 82.7827C128.091 82.7827 125.522 85.3522 125.522 88.5219C125.522 91.6915 128.091 94.261 131.261 94.261Z" fill="#6921EF"/>
<path d="M5.73922 114.956C8.90885 114.956 11.4782 112.387 11.4782 109.217C11.4782 106.048 8.90885 103.478 5.73922 103.478C2.56958 103.478 0 106.048 0 109.217C0 112.387 2.56958 114.956 5.73922 114.956Z" fill="#6921EF"/>
<path d="M30.8265 114.956C33.9961 114.956 36.5657 112.387 36.5657 109.217C36.5657 106.048 33.9961 103.478 30.8265 103.478C27.6569 103.478 25.0875 106.048 25.0875 109.217C25.0875 112.387 27.6569 114.956 30.8265 114.956Z" fill="#6921EF"/>
<path d="M55.913 114.956C59.0826 114.956 61.652 112.387 61.652 109.217C61.652 106.048 59.0826 103.478 55.913 103.478C52.7433 103.478 50.1737 106.048 50.1737 109.217C50.1737 112.387 52.7433 114.956 55.913 114.956Z" fill="#6921EF"/>
<path d="M81.0433 114.956C84.213 114.956 86.7825 112.387 86.7825 109.217C86.7825 106.048 84.213 103.478 81.0433 103.478C77.8737 103.478 75.3043 106.048 75.3043 109.217C75.3043 112.387 77.8737 114.956 81.0433 114.956Z" fill="#6921EF"/>
<path d="M106.131 114.956C109.301 114.956 111.87 112.387 111.87 109.217C111.87 106.048 109.301 103.478 106.131 103.478C102.961 103.478 100.392 106.048 100.392 109.217C100.392 112.387 102.961 114.956 106.131 114.956Z" fill="#6921EF"/>
<path d="M131.261 114.956C134.43 114.956 137 112.387 137 109.217C137 106.048 134.43 103.478 131.261 103.478C128.091 103.478 125.522 106.048 125.522 109.217C125.522 112.387 128.091 114.956 131.261 114.956Z" fill="#6921EF"/>
<path d="M5.73922 135.652C8.90885 135.652 11.4782 133.083 11.4782 129.913C11.4782 126.743 8.90885 124.174 5.73922 124.174C2.56958 124.174 0 126.743 0 129.913C0 133.083 2.56958 135.652 5.73922 135.652Z" fill="#6921EF"/>
<path d="M30.8265 135.652C33.9961 135.652 36.5657 133.083 36.5657 129.913C36.5657 126.743 33.9961 124.174 30.8265 124.174C27.6569 124.174 25.0875 126.743 25.0875 129.913C25.0875 133.083 27.6569 135.652 30.8265 135.652Z" fill="#6921EF"/>
<path d="M55.913 135.652C59.0826 135.652 61.652 133.083 61.652 129.913C61.652 126.743 59.0826 124.174 55.913 124.174C52.7433 124.174 50.1737 126.743 50.1737 129.913C50.1737 133.083 52.7433 135.652 55.913 135.652Z" fill="#6921EF"/>
<path d="M81.0433 135.652C84.213 135.652 86.7825 133.083 86.7825 129.913C86.7825 126.743 84.213 124.174 81.0433 124.174C77.8737 124.174 75.3043 126.743 75.3043 129.913C75.3043 133.083 77.8737 135.652 81.0433 135.652Z" fill="#6921EF"/>
<path d="M106.131 135.652C109.301 135.652 111.87 133.083 111.87 129.913C111.87 126.743 109.301 124.174 106.131 124.174C102.961 124.174 100.392 126.743 100.392 129.913C100.392 133.083 102.961 135.652 106.131 135.652Z" fill="#6921EF"/>
<path d="M131.261 135.652C134.43 135.652 137 133.083 137 129.913C137 126.743 134.43 124.174 131.261 124.174C128.091 124.174 125.522 126.743 125.522 129.913C125.522 133.083 128.091 135.652 131.261 135.652Z" fill="#6921EF"/>
</svg>
